<svg xmlns="http://www.w3.org/2000/svg" xmlns:xlink="http://www.w3.org/1999/xlink" xmlns:serif="http://www.serif.com/" viewBox="0 0 32 40" version="1.1" xml:space="preserve" style="" x="0px" y="0px" fill-rule="evenodd" clip-rule="evenodd" stroke-linejoin="round" stroke-miterlimit="2"><path d="M4.731,3.875l-0,24.25c-0,0.63 0.25,1.234 0.695,1.679c0.446,0.446 1.05,0.696 1.68,0.696l17.788,-0c0.63,-0 1.234,-0.25 1.68,-0.696c0.445,-0.445 0.695,-1.049 0.695,-1.679l0,-24.25c0,-0.63 -0.25,-1.234 -0.695,-1.679c-0.446,-0.446 -1.05,-0.696 -1.68,-0.696l-17.788,0c-0.63,0 -1.234,0.25 -1.68,0.696c-0.445,0.445 -0.695,1.049 -0.695,1.679Zm21.538,3.625l0,20.625c0,0.364 -0.145,0.714 -0.403,0.972c-0.258,0.258 -0.607,0.403 -0.972,0.403c-0,-0 -17.788,-0 -17.788,-0c-0.365,-0 -0.714,-0.145 -0.972,-0.403c-0.258,-0.258 -0.403,-0.608 -0.403,-0.972l-0,-20.625l20.538,0Zm-18.77,10.279l-0,0.001c-0.05,0.374 -0.076,0.755 -0.076,1.143c0,4.734 3.843,8.577 8.577,8.577c3.941,-0 7.265,-2.664 8.268,-6.289l0,-0.001c0.201,-0.728 0.309,-1.495 0.309,-2.287c-0,-4.734 -3.843,-8.577 -8.577,-8.577c-4.346,0 -7.941,3.24 -8.501,7.433Zm0.946,0.567c-0.015,0.191 -0.022,0.383 -0.022,0.577c0,4.182 3.395,7.577 7.577,7.577c3.248,0 6.022,-2.049 7.098,-4.923l-5.484,-0c-0.561,-0 -1.098,-0.223 -1.495,-0.619c-0.396,-0.397 -0.619,-0.934 -0.619,-1.495l0,-0.003c0,-0.295 -0.117,-0.579 -0.326,-0.788c-0.209,-0.208 -0.493,-0.326 -0.788,-0.326l-5.941,0Zm14.951,2.231c0.118,-0.533 0.181,-1.086 0.181,-1.654c-0,-4.182 -3.395,-7.577 -7.577,-7.577c-3.641,0 -6.686,2.574 -7.412,6l5.798,0c0.561,0 1.098,0.223 1.495,0.619c0.396,0.397 0.619,0.934 0.619,1.495l-0,0.003c-0,0.295 0.117,0.579 0.326,0.788c0.209,0.209 0.493,0.326 0.788,0.326l5.782,-0Zm2.873,-14.077l-20.538,0l-0,-2.625c-0,-0.364 0.145,-0.714 0.403,-0.972c0.258,-0.258 0.607,-0.403 0.972,-0.403c0,0 17.788,-0 17.788,-0c0.365,0 0.714,0.145 0.972,0.403c0.258,0.258 0.403,0.608 0.403,0.972l0,2.625Zm-7.769,-2.75c0,-0.276 -0.224,-0.5 -0.5,-0.5l-4,0c-0.276,0 -0.5,0.224 -0.5,0.5l0,1.5c0,0.276 0.224,0.5 0.5,0.5l4,0c0.276,0 0.5,-0.224 0.5,-0.5l0,-1.5Zm-1,0.5l0,0.5c-0,0 -3,0 -3,0c0,0 0,-0.5 0,-0.5l3,-0Z"/></svg>