<svg xmlns="http://www.w3.org/2000/svg" xmlns:xlink="http://www.w3.org/1999/xlink" xmlns:serif="http://www.serif.com/" viewBox="0 0 32 40" version="1.1" xml:space="preserve" style="" x="0px" y="0px" fill-rule="evenodd" clip-rule="evenodd" stroke-linejoin="round" stroke-miterlimit="2"><path d="M26.5,2c0,-0.276 -0.224,-0.5 -0.5,-0.5l-20,0c-0.276,0 -0.5,0.224 -0.5,0.5l0,28c0,0.276 0.224,0.5 0.5,0.5l20,0c0.276,0 0.5,-0.224 0.5,-0.5l0,-28Zm-11,0.5l10,0l0,27l-10,0l0,-27Zm-1,0l0,27l-8,0c0,-0 0,-27 0,-27l8,0Zm2,13l0,7c-0,0.276 0.224,0.5 0.5,0.5c0.276,0 0.5,-0.224 0.5,-0.5l0,-7c-0,-0.276 -0.224,-0.5 -0.5,-0.5c-0.276,0 -0.5,0.224 -0.5,0.5Zm-4,-0l0,7c0,0.276 0.224,0.5 0.5,0.5c0.276,-0 0.5,-0.224 0.5,-0.5l0,-7c0,-0.276 -0.224,-0.5 -0.5,-0.5c-0.276,-0 -0.5,0.224 -0.5,0.5Zm1,-7c0,-0.276 -0.224,-0.5 -0.5,-0.5l-5,0c-0.276,0 -0.5,0.224 -0.5,0.5l0,4c0,0.276 0.224,0.5 0.5,0.5l5,0c0.276,0 0.5,-0.224 0.5,-0.5l0,-4Zm-1,0.5l0,3c-0,0 -4,0 -4,0c0,-0 0,-3 0,-3l4,0Zm-4.5,-2l1.5,0c0.276,-0 0.5,-0.224 0.5,-0.5c-0,-0.276 -0.224,-0.5 -0.5,-0.5l-1.5,0c-0.276,-0 -0.5,0.224 -0.5,0.5c-0,0.276 0.224,0.5 0.5,0.5Zm2.783,0l2.217,0c0.276,-0 0.5,-0.224 0.5,-0.5c-0,-0.276 -0.224,-0.5 -0.5,-0.5l-2.217,0c-0.276,-0 -0.5,0.224 -0.5,0.5c0,0.276 0.224,0.5 0.5,0.5Z"/><text x="0" y="47" fill="#000000" font-size="5px" font-weight="bold" font-family="'Helvetica Neue', Helvetica, Arial-Unicode, Arial, Sans-serif">Created by Singlar</text><text x="0" y="52" fill="#000000" font-size="5px" font-weight="bold" font-family="'Helvetica Neue', Helvetica, Arial-Unicode, Arial, Sans-serif">from the Noun Project</text></svg>